<svg width="520" height="132" viewBox="0 0 520 132" fill="none" xmlns="http://www.w3.org/2000/svg" role="img" aria-labelledby="title desc"><title id="title">Aambey Estates</title><desc id="desc">Aambey Estates horizontal logo lockup.</desc><defs><linearGradient id="gold" x1="112" y1="120" x2="408" y2="456" gradientUnits="userSpaceOnUse"><stop stop-color="#9E6F12"/><stop offset="0.48" stop-color="#D5B65A"/><stop offset="1" stop-color="#B38318"/></linearGradient><linearGradient id="navy" x1="120" y1="40" x2="404" y2="456" gradientUnits="userSpaceOnUse"><stop stop-color="#071827"/><stop offset="1" stop-color="#123047"/></linearGradient></defs><g transform="translate(0 0) scale(.245)"><path fill="url(#navy)" fill-rule="evenodd" d="M256 28L488 456H402L256 170L110 456H24L256 28ZM256 128L164 320H209L256 223L304 320H348L256 128Z"/><path fill="url(#gold)" d="M72 454L256 320L440 454L256 370L72 454Z"/><path fill="url(#gold)" d="M244 186L280 222V321L262 308L244 321V186Z"/><path fill="none" stroke="url(#gold)" stroke-width="14" stroke-linejoin="round" d="M201 337V256L235 219V323"/><path fill="none" stroke="url(#gold)" stroke-width="14" stroke-linejoin="round" d="M311 323V236L356 281V351"/><rect x="232" y="398" width="23" height="23" fill="url(#gold)"/><rect x="270" y="398" width="23" height="23" fill="url(#gold)"/><rect x="232" y="434" width="23" height="23" fill="url(#gold)"/><rect x="270" y="434" width="23" height="23" fill="url(#gold)"/></g><text x="145" y="58" fill="#0E2538" font-family="Georgia, 'Times New Roman', serif" font-size="46" font-weight="600" letter-spacing="10">AAMBEY</text><text x="148" y="100" fill="#9E6F12" font-family="Arial, Helvetica, sans-serif" font-size="24" font-weight="700" letter-spacing="16">ESTATES</text><line x1="147" y1="110" x2="398" y2="110" stroke="#9E6F12" stroke-width="3"/></svg>
