<svg width="180" height="180" viewBox="0 0 180 180" fill="none" xmlns="http://www.w3.org/2000/svg" role="img" aria-label="Aambey Estates"><rect width="180" height="180" rx="36" fill="#FBFAF7"/><rect x="7" y="7" width="166" height="166" rx="31" fill="none" stroke="#9E6F12" stroke-width="5"/><defs><linearGradient id="gold" x1="112" y1="120" x2="408" y2="456" gradientUnits="userSpaceOnUse"><stop stop-color="#9E6F12"/><stop offset="0.48" stop-color="#D5B65A"/><stop offset="1" stop-color="#B38318"/></linearGradient><linearGradient id="navy" x1="120" y1="40" x2="404" y2="456" gradientUnits="userSpaceOnUse"><stop stop-color="#071827"/><stop offset="1" stop-color="#123047"/></linearGradient></defs><g transform="translate(18 14) scale(.282)"><path fill="url(#navy)" fill-rule="evenodd" d="M256 28L488 456H402L256 170L110 456H24L256 28ZM256 128L164 320H209L256 223L304 320H348L256 128Z"/><path fill="url(#gold)" d="M72 454L256 320L440 454L256 370L72 454Z"/><path fill="url(#gold)" d="M244 186L280 222V321L262 308L244 321V186Z"/><path fill="none" stroke="url(#gold)" stroke-width="14" stroke-linejoin="round" d="M201 337V256L235 219V323"/><path fill="none" stroke="url(#gold)" stroke-width="14" stroke-linejoin="round" d="M311 323V236L356 281V351"/><rect x="232" y="398" width="23" height="23" fill="url(#gold)"/><rect x="270" y="398" width="23" height="23" fill="url(#gold)"/><rect x="232" y="434" width="23" height="23" fill="url(#gold)"/><rect x="270" y="434" width="23" height="23" fill="url(#gold)"/></g></svg>
